# xmcd CD database file
#
# Track frame offsets:
#	150
#	22644
#	37765
#	57194
#	85656
#	99903
#	111064
#	135738
#	159980
#	174466
#	191304
#	213106
#	233540
#	245357
#
# Disc length: 3567 seconds
#
# Revision: 1
# Processed by: cddbd v1.5.2PL0 Copyright (c) Steve Scherf et al.
# Submitted via: CDex 1.51
#
DISCID=930ded0e
DTITLE=Lil Ed and Dave Weld with The Imperial Flames - Keep On Walkin'
DYEAR=1900
DGENRE=
TTITLE0=North Carolina Bound (Acoustic Duo)
TTITLE1=Combination Boogie
TTITLE2=I'm Not A Slave
TTITLE3=Confess Diane
TTITLE4=So Long So Long
TTITLE5=Let's Boogie Baby
TTITLE6=Lonely, Lonely (When Evenin' Comes)
TTITLE7=Too Late Baby
TTITLE8=New Year's Resolution
TTITLE9=Sweet Shiny Brown Eyes
TTITLE10=I Can't Have Nothin'
TTITLE11=Keep On Walkin'
TTITLE12=Set My Sight On You
TTITLE13=North Carolina Bound (Band Version)
EXTD=
EXTT0=
EXTT1=
EXTT2=
EXTT3=
EXTT4=
EXTT5=
EXTT6=
EXTT7=
EXTT8=
EXTT9=
EXTT10=
EXTT11=
EXTT12=
EXTT13=
PLAYORDER=
